<?xml version="1.0" encoding="UTF-8" standalone="no" ?>
<!DOCTYPE svg PUBLIC "-//W3C//DTD SVG 1.1//EN" "http://www.w3.org/Graphics/SVG/1.1/DTD/svg11.dtd">
<svg xmlns="http://www.w3.org/2000/svg" xmlns:xlink="http://www.w3.org/1999/xlink" version="1.1" width="400" height="400" viewBox="0 0 400 400" xml:space="preserve">
<desc>Created with Fabric.js 3.6.2</desc>
<defs>
</defs>
<g transform="matrix(6.25 0 0 6.25 149.55 199.97)" id="Discord"  >
<path style="stroke: none; stroke-width: 1; stroke-dasharray: none; stroke-linecap: butt; stroke-dashoffset: 0; stroke-linejoin: miter; stroke-miterlimit: 4; fill: rgb(1,1,1); fill-rule: nonzero; opacity: 1;"  transform=" translate(-7.93, -16)" d="M 10.55 25 C 9.3 25.63 5 23.38 3.82 22.29 C 3.5 20.6 6 10.32 7.71 8.61 S 13 6.9 13 6.9 a 1 1 0 0 0 0 -2 c -0.18 0 -4.44 0 -6.71 2.29 C 4.43 9.06 0.56 21.87 2.29 23.61 c 0.84 0.83 4.9 3.48 7.75 3.48 a 3.07 3.07 0 0 0 1.41 -0.3 a 1 1 0 0 0 0.44 -1.34 A 1 1 0 0 0 10.55 25 Z" stroke-linecap="round" />
</g>
<g transform="matrix(6.25 0 0 6.25 250.45 199.97)" id="Discord"  >
<path style="stroke: none; stroke-width: 1; stroke-dasharray: none; stroke-linecap: butt; stroke-dashoffset: 0; stroke-linejoin: miter; stroke-miterlimit: 4; fill: rgb(1,1,1); fill-rule: nonzero; opacity: 1;"  transform=" translate(-24.07, -16)" d="M 25.71 7.19 C 23.44 4.93 19.18 4.9 19 4.9 a 1 1 0 0 0 0 2 c 1 0 3.89 0.31 5.29 1.71 c 1.71 1.71 4.21 12 3.89 13.68 C 27 23.38 22.7 25.63 21.45 25 a 1 1 0 0 0 -1.34 0.45 a 1 1 0 0 0 0.44 1.34 a 3.07 3.07 0 0 0 1.41 0.3 c 2.85 0 6.91 -2.65 7.75 -3.48 C 31.44 21.87 27.57 9.06 25.71 7.19 Z" stroke-linecap="round" />
</g>
<g transform="matrix(6.25 0 0 6.25 175 208.75)" id="Discord"  >
<ellipse style="stroke: none; stroke-width: 1; stroke-dasharray: none; stroke-linecap: butt; stroke-dashoffset: 0; stroke-linejoin: miter; stroke-miterlimit: 4; fill: rgb(1,1,1); fill-rule: nonzero; opacity: 1;"  cx="0" cy="0" rx="2" ry="2.25" />
</g>
<g transform="matrix(6.25 0 0 6.25 225 208.75)" id="Discord"  >
<ellipse style="stroke: none; stroke-width: 1; stroke-dasharray: none; stroke-linecap: butt; stroke-dashoffset: 0; stroke-linejoin: miter; stroke-miterlimit: 4; fill: rgb(1,1,1); fill-rule: nonzero; opacity: 1;"  cx="0" cy="0" rx="2" ry="2.25" />
</g>
<g transform="matrix(6.25 0 0 6.25 200 161.12)" id="Discord"  >
<path style="stroke: none; stroke-width: 1; stroke-dasharray: none; stroke-linecap: butt; stroke-dashoffset: 0; stroke-linejoin: miter; stroke-miterlimit: 4; fill: rgb(1,1,1); fill-rule: nonzero; opacity: 1;"  transform=" translate(-16, -9.78)" d="M 24 11.9 a 1 1 0 0 0 0.85 -0.47 a 1 1 0 0 0 -0.32 -1.38 c -8.43 -5.27 -16.71 -0.22 -17.06 0 a 1 1 0 0 0 1.06 1.7 c 0.3 -0.19 7.58 -4.6 14.94 0 A 1 1 0 0 0 24 11.9 Z" stroke-linecap="round" />
</g>
<g transform="matrix(6.25 0 0 6.25 200 240.28)" id="Discord"  >
<path style="stroke: none; stroke-width: 1; stroke-dasharray: none; stroke-linecap: butt; stroke-dashoffset: 0; stroke-linejoin: miter; stroke-miterlimit: 4; fill: rgb(1,1,1); fill-rule: nonzero; opacity: 1;"  transform=" translate(-16, -22.44)" d="M 23.09 23.32 a 1.15 1.15 0 0 0 0.2 0.29 a 1 1 0 0 0 1.42 0 A 4.11 4.11 0 0 0 26 20.9 a 1 1 0 0 0 -0.56 -0.9 a 1 1 0 0 0 -1.05 0.11 A 12.9 12.9 0 0 1 16 23 h 0 a 13 13 0 0 1 -8.37 -2.9 A 1 1 0 0 0 6.56 20 a 1 1 0 0 0 -0.56 0.9 a 4.11 4.11 0 0 0 1.29 2.71 a 1 1 0 0 0 1.42 0 a 1.15 1.15 0 0 0 0.2 -0.29 A 14.34 14.34 0 0 0 15.66 25 h 0.68 A 14.34 14.34 0 0 0 23.09 23.32 Z" stroke-linecap="round" />
</g>
</svg>