<?xml version="1.0" encoding="UTF-8" standalone="no" ?>
<!DOCTYPE svg PUBLIC "-//W3C//DTD SVG 1.1//EN" "http://www.w3.org/Graphics/SVG/1.1/DTD/svg11.dtd">
<svg xmlns="http://www.w3.org/2000/svg" xmlns:xlink="http://www.w3.org/1999/xlink" version="1.1" width="400" height="400" viewBox="0 0 400 400" xml:space="preserve">
<desc>Created with Fabric.js 3.6.2</desc>
<defs>
</defs>
<g transform="matrix(14.29 0 0 14.29 200 200)" id="Shape"  >
<path style="stroke: none; stroke-width: 1; stroke-dasharray: none; stroke-linecap: butt; stroke-dashoffset: 0; stroke-linejoin: miter; stroke-miterlimit: 4; fill: rgb(0,0,0); fill-rule: evenodd; opacity: 1;"  transform=" translate(-344, -8)" d="M 345.731959 8.48453617 L 350.681755 12.7272182 C 350.501681 12.8954635 350.259495 13 349.993155 13 L 338.006845 13 C 337.739189 13 337.496237 12.8970552 337.316068 12.7290845 L 342.268041 8.48453617 L 344 10.0000001 Z M 344 9 L 337.318245 3.27278178 C 337.498319 3.10453648 337.740505 3 338.006845 3 L 349.993155 3 C 350.260811 3 350.503763 3.10294483 350.683932 3.27091553 Z M 351 12.1856084 L 346.167358 8.07885766 L 351 3.875422 L 351 12.1856084 L 351 12.1856084 Z M 337 12.1856079 L 337 3.87815189 L 341.832642 8.07885742 L 337 12.1856079 L 337 12.1856079 Z M 337 12.1856079" stroke-linecap="round" />
</g>
</svg>