<?xml version="1.0" encoding="UTF-8" standalone="no" ?>
<!DOCTYPE svg PUBLIC "-//W3C//DTD SVG 1.1//EN" "http://www.w3.org/Graphics/SVG/1.1/DTD/svg11.dtd">
<svg xmlns="http://www.w3.org/2000/svg" xmlns:xlink="http://www.w3.org/1999/xlink" version="1.1" width="400" height="400" viewBox="0 0 400 400" xml:space="preserve">
<desc>Created with Fabric.js 3.6.2</desc>
<defs>
</defs>
<g transform="matrix(0.57 0 0 0.57 200 200)" id="Layer_1"  >
<path style="stroke: none; stroke-width: 1; stroke-dasharray: none; stroke-linecap: butt; stroke-dashoffset: 0; stroke-linejoin: miter; stroke-miterlimit: 4; fill: rgb(0,0,0); fill-rule: nonzero; opacity: 1;"  transform=" translate(-255.95, -256.1)" d="M 415.9 335.5 c -14.6 -15 -56.1 -43.1 -83.3 -43.1 c -6.3 0 -11.8 1.4 -16.3 4.3 c -13.3 8.5 -23.9 15.1 -29 15.1 c -2.8 0 -5.8 -2.5 -12.4 -8.2 l -1.1 -1 c -18.3 -15.9 -22.2 -20 -29.3 -27.4 l -1.8 -1.9 c -1.3 -1.3 -2.4 -2.5 -3.5 -3.6 c -6.2 -6.4 -10.7 -11 -26.6 -29 l -0.7 -0.8 c -7.6 -8.6 -12.6 -14.2 -12.9 -18.3 c -0.3 -4 3.2 -10.5 12.1 -22.6 c 10.8 -14.6 11.2 -32.6 1.3 -53.5 c -7.9 -16.5 -20.8 -32.3 -32.2 -46.2 l -1 -1.2 c -9.8 -12 -21.2 -18 -33.9 -18 c -14.1 0 -25.8 7.6 -32 11.6 c -0.5 0.3 -1 0.7 -1.5 1 c -13.9 8.8 -24 20.9 -27.8 33.2 c -5.7 18.5 -9.5 42.5 17.8 92.4 c 23.6 43.2 45 72.2 79 107.1 c 32 32.8 46.2 43.4 78 66.4 c 35.4 25.6 69.4 40.3 93.2 40.3 c 22.1 0 39.5 0 64.3 -29.9 C 442.3 370.8 431.5 351.6 415.9 335.5 z" stroke-linecap="round" />
</g>
</svg>